<?xml version="1.0" encoding="UTF-8" standalone="no"?>
<svg
   height="128"
   width="128"
   version="1.1"
   id="svg24"
   sodipodi:docname="icon.svg"
   inkscape:version="1.2.1 (9c6d41e410, 2022-07-14)"
   xmlns:inkscape="http://www.inkscape.org/namespaces/inkscape"
   xmlns:sodipodi="http://sodipodi.sourceforge.net/DTD/sodipodi-0.dtd"
   xmlns="http://www.w3.org/2000/svg"
   xmlns:svg="http://www.w3.org/2000/svg">
  <defs
     id="defs28" />
  <sodipodi:namedview
     id="namedview26"
     pagecolor="#505050"
     bordercolor="#eeeeee"
     borderopacity="1"
     inkscape:showpageshadow="0"
     inkscape:pageopacity="0"
     inkscape:pagecheckerboard="0"
     inkscape:deskcolor="#505050"
     showgrid="false"
     inkscape:zoom="8.0234375"
     inkscape:cx="63.688413"
     inkscape:cy="63.937683"
     inkscape:window-width="2560"
     inkscape:window-height="1369"
     inkscape:window-x="-8"
     inkscape:window-y="-8"
     inkscape:window-maximized="1"
     inkscape:current-layer="svg24" />
  <rect
     x="2"
     y="2"
     width="124"
     height="124"
     rx="14"
     fill="#363d52"
     stroke="#212532"
     stroke-width="4"
     id="rect2" />
  <g
     transform="scale(.101) translate(122 122)"
     id="g22">
    <g
       fill="#fff"
       id="g14">
      <path
         d="M105 673v33q407 354 814 0v-33z"
         id="path4" />
      <path
         fill="#478cbf"
         d="m105 673 152 14q12 1 15 14l4 67 132 10 8-61q2-11 15-15h162q13 4 15 15l8 61 132-10 4-67q3-13 15-14l152-14V427q30-39 56-81-35-59-83-108-43 20-82 47-40-37-88-64 7-51 8-102-59-28-123-42-26 43-46 89-49-7-98 0-20-46-46-89-64 14-123 42 1 51 8 102-48 27-88 64-39-27-82-47-48 49-83 108 26 42 56 81zm0 33v39c0 276 813 276 813 0v-39l-134 12-5 69q-2 10-14 13l-162 11q-12 0-16-11l-10-65H447l-10 65q-4 11-16 11l-162-11q-12-3-14-13l-5-69z"
         id="path6" />
      <path
         d="M483 600c3 34 55 34 58 0v-86c-3-34-55-34-58 0z"
         id="path8" />
      <circle
         cx="725"
         cy="526"
         r="90"
         id="circle10" />
      <circle
         cx="299"
         cy="526"
         r="90"
         id="circle12" />
    </g>
    <g
       fill="#414042"
       id="g20">
      <circle
         cx="307"
         cy="532"
         r="60"
         id="circle16" />
      <circle
         cx="717"
         cy="532"
         r="60"
         id="circle18" />
    </g>
  </g>
  <path
     style="fill:#999999;stroke-width:0.124635"
     d="M 59.38851,108.29627 C 54.285052,108.04433 48.48479,107.19212 44.12074,106.05304 34.020852,103.41681 27.169058,99.061845 24.431185,93.538462 23.292679,91.24164 22.933127,89.324088 22.932918,85.547955 c -1.04e-4,-1.88334 -9.5e-5,-1.883397 0.280324,-1.838675 0.154236,0.0246 3.196472,0.30151 6.760524,0.61536 3.564052,0.31385 6.490422,0.580963 6.503043,0.593584 0.01262,0.01262 0.142107,1.617045 0.287745,3.565386 0.204375,2.734113 0.312484,3.623167 0.473787,3.896229 0.451325,0.764033 0.490722,0.769754 9.437414,1.370491 4.7456,0.318649 8.405821,0.512947 8.651153,0.459235 0.23389,-0.05121 0.589837,-0.257686 0.790994,-0.458843 0.353317,-0.353317 0.383318,-0.480606 0.883289,-3.747617 l 0.51755,-3.381878 h 6.506646 6.506647 l 0.07083,0.405063 c 0.03895,0.222785 0.267412,1.686844 0.507686,3.253464 0.450325,2.936178 0.595259,3.427929 1.109658,3.764976 0.42078,0.275706 0.726768,0.26531 9.60258,-0.326246 7.187191,-0.479012 7.894206,-0.545721 8.350535,-0.787893 0.814363,-0.43218 0.884234,-0.707406 1.135349,-4.472243 0.122353,-1.834373 0.254503,-3.387073 0.293667,-3.450442 0.06087,-0.0985 12.040031,-1.253281 13.000901,-1.253281 h 0.33931 v 2.603564 c 0,1.802352 -0.058,2.909273 -0.18845,3.596975 -0.90938,4.793899 -4.21971,8.727181 -10.08284,11.980296 -8.319512,4.61601 -21.713378,7.03067 -35.282747,6.36081 z"
     id="path395" />
  <path
     style="fill:#999999;stroke-width:0.124635"
     d="m 46.675755,90.332847 c -3.496008,-0.272057 -6.370858,-0.508508 -6.388556,-0.525446 -0.0177,-0.01694 -0.120883,-1.539977 -0.2293,-3.384532 C 39.837,82.664621 39.725805,82.195338 38.974043,81.848648 38.703705,81.723976 36.095601,81.437702 30.909445,80.963452 26.693671,80.577939 23.174294,80.263044 23.088608,80.263685 22.965004,80.264557 22.932814,77.689882 22.932814,67.802358 V 55.339868 L 21.842259,53.87681 C 21.242454,53.072128 19.984742,51.265373 19.047343,49.861799 17.5843,47.671173 17.36142,47.273781 17.473196,47.055118 c 0.408401,-0.798932 3.136275,-4.728591 4.243195,-6.112567 1.476818,-1.846457 3.653495,-4.28638 3.912624,-4.385817 0.332235,-0.127492 4.077996,1.872455 6.706234,3.58061 l 1.582201,1.028311 0.28934,-0.236187 c 0.159136,-0.129903 0.888906,-0.740958 1.621709,-1.3579 1.730775,-1.457128 3.982926,-3.064844 5.692732,-4.063801 l 1.364066,-0.796959 -0.06672,-0.560857 C 42.367654,30.359616 42.126582,27.320938 42.126582,25.427483 V 24.32757 l 1.786186,-0.758429 c 2.454224,-1.042084 4.048004,-1.621731 6.31508,-2.296751 1.681953,-0.5008 3.888489,-1.078034 4.130973,-1.08067 0.208312,-0.0023 3.057397,5.347135 4.270027,8.017334 0.422273,0.929843 0.459822,0.972883 0.788478,0.903777 0.672375,-0.141378 3.230689,-0.320047 4.582674,-0.320047 1.284143,0 3.769494,0.164374 4.61149,0.304991 l 0.373904,0.06244 1.305832,-2.69524 c 1.242304,-2.564116 2.972062,-5.772259 3.304065,-6.127975 0.127648,-0.136763 0.465124,-0.08683 1.947521,0.288141 3.021745,0.764354 5.963569,1.803468 9.935187,3.509317 l 0.539343,0.231653 -0.08233,1.869523 c -0.06892,1.564963 -0.281931,4.143481 -0.643516,7.789678 l -0.06798,0.685492 0.854649,0.494776 c 2.197472,1.272169 5.082815,3.364737 7.165389,5.196634 0.454744,0.400007 0.863516,0.727285 0.908383,0.727285 0.04487,0 0.570175,-0.328076 1.16735,-0.729057 1.457034,-0.978345 3.881332,-2.380169 5.646633,-3.265102 l 1.44498,-0.724362 1.3593,1.5019 c 1.62004,1.789986 3.16202,3.695857 4.37954,5.41306 0.90098,1.270747 2.35996,3.533063 2.47966,3.845018 0.0796,0.207456 -1.9839,3.378346 -4.04386,6.213996 l -1.51835,2.090094 v 12.3949 c 0,6.817194 -0.0421,12.394317 -0.0935,12.393605 -0.0514,-7.47e-4 -3.54275,0.313124 -7.758522,0.697415 -5.733849,0.52267 -7.774076,0.750657 -8.097796,0.904896 -0.814339,0.387998 -0.871241,0.621801 -1.095563,4.501522 -0.195282,3.377471 -0.210619,3.494419 -0.458575,3.496534 -0.141096,0.0012 -3.11644,0.22134 -6.611876,0.489193 -3.495435,0.267851 -6.360294,0.477188 -6.366352,0.465192 -0.0061,-0.012 -0.19123,-1.423955 -0.411493,-3.137684 -0.451092,-3.509656 -0.553188,-3.823993 -1.384874,-4.263799 l -0.539649,-0.285373 -8.237456,0.0021 -8.237457,0.002 -0.486821,0.278379 c -0.865276,0.494789 -0.916206,0.637811 -1.320297,3.707706 -0.506781,3.850032 -0.485236,3.739845 -0.727693,3.721518 -0.113935,-0.0086 -3.067526,-0.238249 -6.563533,-0.510307 z M 65.107254,75.376381 c 0.309984,-0.09206 0.742049,-0.380412 1.091788,-0.728648 0.850808,-0.847154 0.880639,-1.079043 0.832662,-6.472465 -0.03964,-4.456437 -0.04625,-4.560005 -0.324281,-5.080541 -1.155523,-2.163422 -4.834651,-1.872622 -5.513976,0.435826 -0.09389,0.319034 -0.125637,2.033469 -0.0991,5.350837 l 0.03905,4.881391 0.376034,0.53482 c 0.739351,1.05156 2.207309,1.491716 3.597822,1.07878 z m -20.240367,-1.1111 c 2.982554,-0.791415 5.315127,-2.957673 6.298749,-5.849639 1.486172,-4.36953 -0.496579,-9.15878 -4.614516,-11.14616 -1.542313,-0.744344 -2.712234,-0.981028 -4.467863,-0.903883 -2.465042,0.108318 -4.247519,0.895099 -6.001445,2.649027 -1.771114,1.771112 -2.544634,3.538768 -2.648964,6.053434 -0.07283,1.75547 0.190337,2.983973 0.986013,4.602826 0.708862,1.442226 2.322546,3.074884 3.781723,3.826191 2.146945,1.105427 4.411824,1.366425 6.666303,0.768204 z m 42.813736,0.06415 c 2.564931,-0.566777 4.845208,-2.392572 6.051654,-4.845498 0.714011,-1.451713 0.918045,-2.358097 0.911829,-4.050633 -0.0062,-1.67985 -0.213572,-2.593341 -0.919674,-4.050633 -0.906455,-1.870793 -2.297537,-3.227749 -4.298921,-4.19346 -1.39209,-0.671713 -2.529565,-0.889431 -4.299902,-0.823021 -2.464231,0.09244 -4.382649,0.946627 -6.134219,2.731296 -1.626281,1.657012 -2.590222,4.014861 -2.590222,6.335818 0,2.522973 1.066728,4.969738 2.924233,6.707342 2.21111,2.068385 5.271705,2.870158 8.355222,2.188789 z"
     id="path397" />
  <path
     style="fill:#999999;stroke-width:0.124635"
     d="m 46.177215,93.598469 c -7.762327,-0.542308 -7.777657,-0.543795 -8.279407,-0.80326 -0.666695,-0.344762 -0.73575,-0.646489 -1.019384,-4.454087 -0.144507,-1.939905 -0.270693,-3.535521 -0.280416,-3.545812 -0.0097,-0.01029 -3.088368,-0.289991 -6.841435,-0.621555 l -6.823759,-0.602843 v -1.590714 c 0,-1.341824 0.02971,-1.590714 0.189892,-1.590714 0.741425,0 15.286486,1.406176 15.605479,1.508695 0.456168,0.146603 0.838836,0.618384 0.949776,1.170954 0.04129,0.205648 0.164685,1.831711 0.274217,3.613475 0.10953,1.781763 0.208915,3.246482 0.220855,3.25493 0.04921,0.03482 13.360194,1.022566 13.389216,0.993551 0.01737,-0.01736 0.221162,-1.476839 0.452877,-3.24328 0.447118,-3.408538 0.489134,-3.547206 1.246047,-4.112435 0.338505,-0.25278 0.479645,-0.257469 8.654422,-0.287526 l 8.310306,-0.03055 0.491593,0.279894 c 0.805802,0.458792 0.88881,0.717629 1.328904,4.143835 0.220099,1.71351 0.433342,3.152983 0.473872,3.198828 0.06804,0.07696 12.992484,-0.844741 13.295171,-0.948141 0.08564,-0.02926 0.190932,-1.130061 0.288666,-3.018093 0.08462,-1.634621 0.206377,-3.277597 0.270578,-3.651057 0.13613,-0.79188 0.561358,-1.31668 1.156529,-1.427347 0.359215,-0.06679 15.021226,-1.444724 15.380176,-1.445424 0.11651,-2.27e-4 0.1558,0.40061 0.1558,1.589626 v 1.58993 l -6.761445,0.602902 c -3.718793,0.331596 -6.785098,0.625958 -6.814012,0.654137 -0.02891,0.02818 -0.153069,1.467111 -0.275899,3.197626 -0.297914,4.197197 -0.283662,4.115553 -0.797144,4.566397 -0.234845,0.206196 -0.61047,0.405703 -0.834721,0.443348 -0.643256,0.107981 -15.139282,1.066039 -16.12607,1.065789 -0.921164,-2.5e-4 -1.376448,-0.202852 -1.664278,-0.740668 -0.08624,-0.161133 -1.125656,-6.4568 -1.125656,-6.817988 0,-0.02556 -2.98382,-0.03197 -6.630712,-0.01423 l -6.63071,0.03225 -0.510362,3.302824 c -0.2807,1.816553 -0.578326,3.42614 -0.661393,3.576861 -0.310429,0.563257 -0.617867,0.66172 -2.015198,0.645402 -0.721651,-0.0084 -4.34072,-0.226914 -8.042375,-0.485527 z"
     id="path399" />
  <path
     style="fill:#999999;stroke-width:0.124635"
     d="m 41.344262,74.393604 c -4.428238,-0.581098 -7.823811,-4.442186 -7.815321,-8.886764 0.0029,-1.539977 0.262185,-2.667015 0.919983,-3.999537 2.231602,-4.520635 7.645884,-6.352223 12.124133,-4.101453 5.12289,2.574768 6.543003,9.223094 2.928468,13.70976 -1.926451,2.391272 -5.12368,3.676077 -8.157263,3.277994 z m 3.445635,-2.417955 c 1.7823,-0.46423 3.187744,-1.578285 3.974131,-3.15018 2.062047,-4.121792 -0.881606,-8.876102 -5.495681,-8.876102 -2.560205,0 -5.004546,1.801093 -5.766396,4.248922 -0.317688,1.020732 -0.317688,2.695641 0,3.716373 0.937727,3.012922 4.242278,4.854283 7.287946,4.060987 z"
     id="path401" />
  <path
     style="fill:#999999;stroke-width:0.124635"
     d="m 41.919112,71.86164 c -1.988205,-0.482183 -3.618005,-2.010513 -4.286638,-4.019757 -0.356752,-1.07204 -0.301806,-2.870922 0.120486,-3.94461 0.415128,-1.055474 1.307613,-2.161886 2.252903,-2.792919 3.276356,-2.187149 7.633591,-0.71886 8.992717,3.030342 0.370918,1.02319 0.374339,2.811375 0.0073,3.822302 -1.07664,2.96547 -4.097144,4.629693 -7.086782,3.904642 z"
     id="path403" />
  <path
     style="fill:#999999;stroke-width:0.124635"
     d="m 62.970376,75.237718 c -0.629027,-0.228129 -1.278926,-0.810494 -1.535835,-1.376237 -0.214915,-0.473269 -0.233567,-0.892317 -0.236088,-5.304117 -0.0026,-4.595108 0.0078,-4.811998 0.255692,-5.324094 0.477929,-0.987271 1.85749,-1.670983 3.002264,-1.487926 1.11674,0.178574 2.061721,0.980499 2.342021,1.987474 0.100089,0.359568 0.132279,1.92034 0.105966,5.137983 l -0.03779,4.621531 -0.375829,0.607622 c -0.682753,1.10384 -2.232705,1.604772 -3.520397,1.137764 z"
     id="path405" />
  <path
     style="fill:#999999;stroke-width:0.124635"
     d="m 83.270085,71.841957 c -1.073344,-0.288659 -2.079731,-0.898552 -2.861217,-1.733964 -1.75435,-1.875406 -2.130835,-4.407833 -1.005216,-6.761587 0.375329,-0.784839 1.879321,-2.274326 2.668403,-2.642667 2.453257,-1.145174 5.148973,-0.668747 6.96017,1.230104 2.299917,2.411222 2.259941,5.955786 -0.09371,8.30944 -1.538628,1.538629 -3.663422,2.137887 -5.668427,1.598674 z"
     id="path407" />
  <path
     style="fill:#999999;stroke-width:0.124635"
     d="M 84.35398,74.394778 C 83.248142,74.24936 81.651394,73.655187 80.699107,73.034747 76.6577,70.401668 75.371848,65.216108 77.711899,60.987993 c 0.299646,-0.541415 0.866476,-1.244664 1.555973,-1.930451 0.902595,-0.897737 1.281194,-1.174168 2.255986,-1.647192 1.628026,-0.79001 2.570784,-0.988908 4.34956,-0.917648 2.500698,0.100181 4.268752,0.87375 6.048877,2.646539 2.91105,2.899052 3.478117,7.28603 1.401609,10.843232 -0.73716,1.262808 -2.277703,2.742891 -3.531541,3.392942 -1.717424,0.890398 -3.655952,1.253754 -5.438383,1.019363 z m 1.882545,-2.423292 c 2.192395,-0.51678 4.018208,-2.407361 4.484556,-4.643638 0.792216,-3.798929 -2.104835,-7.378481 -5.971653,-7.378481 -1.673209,0 -3.073942,0.587741 -4.312673,1.809576 -1.187942,1.17174 -1.792159,2.62063 -1.792159,4.297532 0,3.984517 3.66565,6.840491 7.591929,5.915011 z"
     id="path409" />
  <path
     style="fill:#808080;stroke-width:0.124635"
     d="m 13.5852,123.69785 c -2.249072,-0.46282 -4.1284902,-1.46218 -5.8402831,-3.10553 -1.8513078,-1.77729 -3.0662223,-4.02628 -3.5009778,-6.48084 -0.18361,-1.03663 -0.18361,-99.18633 0,-100.222962 C 4.5134366,12.36698 5.2668008,10.51965 6.1466042,9.2229796 6.7063568,8.3980055 8.1796759,6.9050313 9.0360273,6.2950095 10.427451,5.3038292 12.247192,4.5346538 13.888518,4.2439391 c 1.036632,-0.18361 99.186332,-0.18361 100.222962,0 2.45456,0.4347555 4.70355,1.64967 6.48084,3.5009778 1.4163,1.4752939 2.2522,2.9023621 2.88883,4.9319041 l 0.34358,1.095331 V 64 114.22785 l -0.34358,1.09533 c -0.67232,2.1433 -1.67365,3.77879 -3.22607,5.26914 -1.47529,1.4163 -2.90236,2.2522 -4.9319,2.88883 l -1.09533,0.34358 -49.916263,0.0199 c -41.247981,0.0165 -50.056945,-0.009 -50.726387,-0.14679 z m 57.394352,-15.45161 c 13.488849,-1.08889 24.273503,-4.9528 29.792018,-10.673848 2.32248,-2.407709 3.55279,-4.698405 4.13087,-7.691229 0.15477,-0.801257 0.19512,-3.636154 0.25176,-17.687535 l 0.0674,-16.733346 0.63118,-0.833771 c 1.76527,-2.331872 4.94756,-7.072817 4.94756,-7.370835 0,-0.152317 -0.45636,-0.891236 -1.78222,-2.885666 -1.51902,-2.285013 -3.69567,-5.020099 -5.63972,-7.086641 l -0.94733,-1.007019 -1.58919,0.796341 c -2.294706,1.14988 -3.752635,2.001738 -6.443968,3.765168 -0.262883,0.172247 -0.318447,0.146685 -0.976443,-0.449198 -1.818258,-1.646624 -4.548899,-3.656481 -6.825557,-5.023875 -0.716579,-0.430387 -1.285825,-0.837728 -1.264991,-0.905202 0.02083,-0.06748 0.14935,-1.188308 0.285592,-2.490743 0.323132,-3.089044 0.570184,-7.526203 0.427014,-7.669373 -0.257537,-0.257537 -4.151248,-1.827777 -6.339585,-2.556602 -2.012576,-0.670288 -5.630745,-1.676654 -6.028046,-1.676654 -0.24924,0 -3.174853,5.420699 -4.295878,7.959584 -0.413709,0.936963 -0.488429,1.034575 -0.739045,0.965455 -0.153342,-0.04229 -1.27358,-0.144011 -2.489418,-0.22604 -1.727536,-0.116555 -2.680798,-0.1159 -4.36222,0.003 -1.183383,0.08368 -2.269214,0.183346 -2.412958,0.221478 -0.208754,0.05538 -0.294248,-0.01411 -0.424801,-0.345281 -0.582159,-1.476735 -3.982663,-8.033055 -4.445661,-8.571431 -0.08411,-0.09781 -3.780161,0.876695 -5.6491,1.489441 -1.988349,0.651898 -4.240195,1.522313 -5.82668,2.252211 l -1.028238,0.473064 v 1.057534 c 0,1.483013 0.215366,4.490578 0.505541,7.059837 0.196783,1.742352 0.214587,2.200108 0.08851,2.275555 -2.906765,1.739406 -5.656779,3.694105 -7.661095,5.445479 l -1.022254,0.893246 -1.114051,-0.749085 c -1.394441,-0.937621 -3.979004,-2.426415 -5.782365,-3.330833 l -1.377553,-0.69087 -0.947869,1.029935 c -2.494246,2.710199 -4.70659,5.560337 -6.471173,8.336745 l -1.036448,1.630755 0.524046,0.836597 c 0.836652,1.335648 3.059072,4.583995 4.122897,6.026132 l 0.978047,1.325857 0.002,15.873754 c 0.0011,8.999768 0.05361,16.496792 0.121226,17.312507 0.348415,4.20352 2.536558,7.884919 6.525994,10.979532 6.380066,4.94903 17.390883,8.16802 30.223994,8.83592 2.664765,0.13868 8.426577,0.0418 11.298186,-0.19005 z"
     id="path411" />
  <path
     style="fill:#1a1a1a;stroke-width:0.124635"
     d="M 14.706913,127.86888 C 11.897729,127.63873 9.4146475,126.775 7.1297305,125.23321 3.5547015,122.82086 1.3139376,119.46083 0.33669584,115.04701 L 0.07254336,113.85394 0.03107864,65.246349 C 0.00361611,33.053017 0.03244515,16.082128 0.11645014,14.990419 0.18621006,14.083835 0.36372845,12.84995 0.51093544,12.248452 1.7155242,7.3264209 5.0689899,3.3635859 9.7300621,1.3540879 11.391127,0.63796367 12.985313,0.26984 15.080818,0.11851122 16.309188,0.02980339 32.416795,0.00159339 65.370983,0.03043576 l 48.482957,0.04243354 1.19307,0.26398951 c 2.22826,0.49304365 4.022,1.23001429 5.72579,2.35247629 3.63105,2.3921438 6.09245,6.1310651 6.94137,10.5440899 0.21261,1.105189 0.22351,3.580059 0.22351,50.704258 0,47.874407 -0.008,49.584317 -0.23316,50.788707 -1.25479,6.70733 -6.1306,11.62541 -12.87323,12.98484 -1.0452,0.21074 -3.6226,0.22301 -50.021163,0.23842 -26.905551,0.009 -49.451997,-0.0274 -50.103214,-0.0808 z m 100.634967,-4.26852 c 4.02429,-1.26072 6.99776,-4.23419 8.25848,-8.25848 l 0.34901,-1.11403 V 64 13.772152 l -0.34901,-1.114031 C 122.31393,8.5517643 119.20973,5.5125918 115.10029,4.3360891 L 114.10321,4.0506329 H 64 13.896787 L 12.899708,4.3386035 C 8.409525,5.6354324 5.126399,9.1108368 4.2254975,13.520824 3.9919253,14.66418 3.9872076,15.824022 4.0185546,64.397033 l 0.032078,49.706177 0.2826244,0.99708 c 1.2489202,4.4061 4.7660477,7.74726 9.127308,8.67064 1.01103,0.21406 3.335407,0.22325 50.91334,0.20137 l 49.853945,-0.0229 z"
     id="path482" />
  <rect
     style="fill:#1a1a1a"
     id="rect536"
     width="105.06718"
     height="103.19766"
     x="11.715676"
     y="11.591042" />
  <rect
     style="fill:#808080"
     id="rect590"
     width="109.0555"
     height="107.80915"
     x="10.095424"
     y="9.2229795" />
</svg>
